# AST/ASF file generated using VICON BodyLanguage
# -----------------------------------------------
:version 1.10
:name VICON
:units
  mass 1.0
  length 0.45
  angle deg
:documentation
   .ast/.asf automatically generated from VICON data using
   VICON BodyBuilder and BodyLanguage model FoxedUp or BRILLIANT.MOD
:root
   order TX TY TZ RX RY RZ
   axis XYZ
   position 0 0 0  
   orientation 0 0 0 
:bonedata
  begin
     id 1 
     name lhipjoint
     direction 0.643824 -0.71708 0.266994 
     length 2.52133 
     axis 0 0 0  XYZ
  end
  begin
     id 2 
     name lfemur
     direction 0.34202 -0.939693 0  
     length 7.51824  
     axis 0 0 20  XYZ
    dof rx ry rz
    limits (-160.0 20.0)
           (-70.0 70.0)
           (-60.0 70.0)
  end
  begin
     id 3 
     name ltibia
     direction 0.34202 -0.939693 0   
     length 7.3685   
     axis 0 0 20   XYZ
    dof rx
    limits (-10.0 170.0)
  end
  begin
     id 4 
     name lfoot
     direction 0.105419 -0.289636 0.951314   
     length 2.20972   
     axis -90 7.62852e-016 20   XYZ
    dof rx rz
    limits (-45.0 90.0)
           (-70.0 20.0)
  end
  begin
     id 5 
     name ltoes
     direction 1.53549e-011 -4.21833e-011 1   
     length 1.10139   
     axis -90 7.62852e-016 20   XYZ
    dof rx
    limits (-90.0 20.0)
  end
  begin
     id 6 
     name rhipjoint
     direction -0.608823 -0.743445 0.276811   
     length 2.43192  
     axis 0 0 0  XYZ 
  end
  begin
     id 7 
     name rfemur
     direction -0.34202 -0.939693 0   
     length 7.69715   
     axis 0 0 -20   XYZ
    dof rx ry rz
    limits (-160.0 20.0)
           (-70.0 70.0)
           (-70.0 60.0)
  end
  begin
     id 8 
     name rtibia
     direction -0.34202 -0.939693 0   
     length 7.44924   
     axis 0 0 -20   XYZ
    dof rx
    limits (-10.0 170.0)
 end
 begin
     id 9 
     name rfoot
     direction -0.103614 -0.284677 0.953007   
     length 2.22623  
     axis -90 -7.62852e-016 -20   XYZ
    dof rx rz
    limits (-45.0 90.0)
           (-20.0 70.0)
  end
  begin
     id 10 
     name rtoes
     direction -1.53537e-011 -4.22026e-011 1   
     length 1.11   
     axis -90 -7.62852e-016 -20   XYZ
    dof rx
    limits (-90.0 20.0)
  end
  begin
     id 11 
     name lowerback
     direction -0.0101212 0.99662 -0.0815298   
     length 2.08277   
     axis 0 0 0   XYZ
    dof rx ry rz
    limits (-20.0 45.0)
           (-30.0 30.0)
           (-30.0 30.0)
  end
  begin
     id 12 
     name upperback
     direction 0.024314 0.999591 -0.0150645   
     length 2.08524   
     axis 0 0 0   XYZ
    dof rx ry rz
    limits (-20.0 45.0)
           (-30.0 30.0)
           (-30.0 30.0)
  end
  begin
     id 13 
     name thorax
     direction 0.0285959 0.999323 0.0231357   
     length 2.09645   
     axis 0 0 0   XYZ
    dof rx ry rz
    limits (-20.0 45.0)
           (-30.0 30.0)
           (-30.0 30.0)
  end
  begin
     id 14 
     name lowerneck
     direction -0.065512 0.979301 0.191515   
     length 1.63798   
     axis 0 0 0   XYZ
    dof rx ry rz
    limits (-20.0 45.0)
           (-30.0 30.0)
           (-30.0 30.0)
  end
  begin
     id 15 
     name upperneck
     direction 0.0498479 0.98191 -0.182667   
     length 1.68731   
     axis 0 0 0   XYZ
    dof rx ry rz
    limits (-20.0 45.0)
           (-30.0 30.0)
           (-30.0 30.0)
  end
  begin
     id 16
     name head
     direction 0.0230358 0.996257 -0.0833175  
     length 1.69785  
     axis 0 0 0   XYZ
    dof rx ry rz
    limits (-20.0 45.0)
           (-30.0 30.0)
           (-30.0 30.0)
  end
  begin
     id 17 
     name lclavicle
     direction 0.967963 0.201165 -0.150269  
     length 3.63976  
     axis 0 0 0   XYZ
    dof ry rz
    limits (-20.0 10.0)
           (0.0 20.0)
  end
  begin
     id 18 
     name lhumerus
     direction 1 -4.48954e-011 -2.92837e-028   
     length 5.32462   
     axis 180 -30 -90   XYZ
    dof rx ry rz
    limits (-60.0 90.0)
           (-90.0 90.0)
           (-90.0 90.0)
  end
  begin
     id 19
     name lradius
     direction 1 -4.48958e-011 -6.39511e-027   
     length 3.48402   
     axis 180 -30 -90   XYZ
    dof rx
    limits (-10.0 170.0)
  end
  begin
     id 20
     name lwrist
     direction 1 -4.48975e-011 -1.1413e-026   
     length 1.74201   
     axis 6.88575e-015 90 90   XYZ
    dof ry
    limits (-180.0 0.0)
 end
  begin
     id 21 
     name lhand
     direction 1 -4.48899e-011 -2.28192e-026   
     length 0.572476   
     axis 1.45643e-014 90 90   XYZ
    dof rx rz
    limits (-90.0 90.0)
           (-45.0 45.0)
  end
  begin
     id 22 
     name lfingers
     direction 1 -4.49155e-011 -4.5684e-026   
     length 0.461545   
     axis 2.91283e-014 90 90   XYZ
    dof rx
    limits (0.0 90.0)
  end
  begin
     id 23
     name lthumb
     direction 0.707107 -6.34943e-011 0.707107   
     length 0.662688   
     axis -90 45 -2.25915e-014   XYZ
    dof rx rz
    limits (-45.0 45.0)
           (-45.0 45.0)
  end
  begin
     id 24 
     name rclavicle
     direction -0.964103 0.264019 -0.0282629   
     length 3.54491  
     axis 0 0 0   XYZ 
    dof ry rz
    limits (-10.0 20.0)
           (-20.0 0.0)
  end
  begin
     id 25 
     name rhumerus
     direction -1 -4.48964e-011 -2.45032e-027  
     length 5.33589   
     axis 180 30 90   XYZ
    dof rx ry rz
    limits (-90.0 60.0)
           (-90.0 90.0)
           (-90.0 90.0)
  end
  begin
     id 26 
     name rradius
     direction -1 -4.48987e-011 -1.55093e-027   
     length 3.64134   
     axis 180 30 90   XYZ
    dof rx
    limits (-10.0 170.0)
  end
  begin
     id 27 
     name rwrist
     direction -1 -4.4897e-011 -1.14128e-026   
     length 1.82067   
     axis 6.88575e-015 -90 -90   XYZ
    dof ry
    limits (-180.0 0.0)
  end
  begin
     id 28
     name rhand
     direction -1 -4.49021e-011 -2.28301e-026   
     length 0.734811   
     axis 1.45643e-014 -90 -90   XYZ
    dof rx rz
    limits (-90.0 90.0)
           (-45.0 45.0)
  end
  begin
     id 29
     name rfingers
     direction -1 -4.48862e-011 -4.56319e-026   
     length 0.592424   
     axis 2.91283e-014 -90 -90   XYZ
    dof rx
    limits (0.0 90.0)
  end
  begin
     id 30
     name rthumb
     direction -0.707107 -6.34978e-011 0.707107   
     length 0.850605   
     axis -90 -45 2.25915e-014   XYZ
    dof rx rz
    limits (-45.0 45.0)
           (-45.0 45.0)
  end
:hierarchy
  begin
    root lhipjoint rhipjoint lowerback
    lhipjoint lfemur
    lfemur ltibia
    ltibia lfoot
    lfoot ltoes
    rhipjoint rfemur
    rfemur rtibia
    rtibia rfoot
    rfoot rtoes
    lowerback upperback
    upperback thorax
    thorax lowerneck lclavicle rclavicle
    lowerneck upperneck
    upperneck head
    lclavicle lhumerus
    lhumerus lradius
    lradius lwrist
    lwrist lhand lthumb
    lhand lfingers
    rclavicle rhumerus
    rhumerus rradius
    rradius rwrist
    rwrist rhand rthumb
    rhand rfingers
  end

#!OML:ASF F:\VICON\USERDATA\INSTALL\rory3\rory3.ASF
:FULLY-SPECIFIED
:DEGREES
199
root -1.14874 17.4062 -0.25521 9.52522 14.4311 0.406577
lowerback 13.3052 -0.790752 -3.79367
upperback 4.99161 -1.46362 0.476799
thorax -2.09387 -0.747482 2.85271
lowerneck -15.7442 -0.815895 -10.58
upperneck 37.6372 2.32824 0.804957
head 15.9819 -0.376203 2.64645
rclavicle 1.07344e-014 -5.56597e-015
rhumerus 24.9204 -3.94815 -43.8546
rradius 77.4501
rwrist 17.998
rhand -40.2175 0.256047
rfingers 7.12502
rthumb -13.1775 -29.3075
lclavicle 1.07344e-014 -5.56597e-015
lhumerus 16.3927 4.62021 60.4777
lradius 64.4355
lwrist 6.72371
lhand -23.0743 27.269
lfingers 7.12502
lthumb 3.37137 57.222
rfemur -34.9989 1.12772 10.3212
rtibia 19.6708
rfoot -5.19332 -16.4498
rtoes 9.54106
lfemur -24.6814 -2.9271 -14.0685
ltibia 36.7246
lfoot -19.2234 -8.96391
ltoes -17.1402
200
root -1.202 17.4003 -0.230162 10.1716 14.7366 0.378758
lowerback 13.4665 -0.887015 -3.76312
upperback 5.18588 -1.58267 0.577481
thorax -1.9655 -0.811735 2.95896
lowerneck -15.7598 -0.686053 -10.2967
upperneck 37.9598 2.63389 0.350122
head 16.1468 -0.287226 2.45965
rclavicle -2.62396e-014 -2.44505e-014
rhumerus 23.969 -1.7392 -45.2977
rradius 77.1049
rwrist 17.867
rhand -39.8923 0.13866
rfingers 7.12502
rthumb -12.8639 -29.4449
lclavicle -2.62396e-014 -2.44505e-014
lhumerus 14.6347 2.71406 61.4976
lradius 64.0089
lwrist 6.59452
lhand -23.1959 27.9467
lfingers 7.12502
lthumb 3.25387 57.9017
rfemur -35.7456 0.996061 10.4226
rtibia 19.8341
rfoot -4.70183 -16.6999
rtoes 11.3853
lfemur -25.4563 -2.91754 -13.7546
ltibia 36.7995
lfoot -19.2538 -9.12853
ltoes -17.434
201
root -1.25592 17.3917 -0.201718 10.8364 15.0011 0.347458
lowerback 13.724 -0.959679 -3.68481
upperback 5.33483 -1.67055 0.630732
thorax -1.94151 -0.856625 2.98775
lowerneck -15.7073 -0.608754 -10.139
upperneck 38.1504 2.79896 0.114847
head 16.2313 -0.236757 2.3616
rclavicle 2.32578e-014 -1.27222e-014
rhumerus 23.0093 0.347118 -47.0153
rradius 76.3963
rwrist 17.5553
rhand -39.1275 0.469141
rfingers 7.12502
rthumb -12.1265 -29.1594
lclavicle 2.32578e-014 -1.27222e-014
lhumerus 12.9133 0.541967 62.3957
lradius 63.6643
lwrist 6.92082
lhand -22.9594 27.8961
lfingers 7.12502
lthumb 3.48231 57.8474
rfemur -36.5302 0.897112 10.5402
rtibia 20.0075
rfoot -4.24013 -16.9528
rtoes 13.4815
lfemur -26.2683 -2.90779 -13.4209
ltibia 36.9193
lfoot -19.2703 -9.29038
ltoes -17.4751
202
root -1.31153 17.3848 -0.172061 11.4884 15.2456 0.263382
lowerback 14.1385 -0.981906 -3.51529
upperback 5.44413 -1.68673 0.659874
thorax -2.05258 -0.86108 2.93476
lowerneck -15.6534 -0.596633 -10.0464
upperneck 38.2853 2.79546 0.10435
head 16.2888 -0.230772 2.34276
rclavicle 3.27001e-014 -2.60408e-014
rhumerus 21.6955 2.27207 -48.7046
rradius 75.5666
rwrist 17.6779
rhand -38.1767 0.64347
rfingers 7.12502
rthumb -11.2097 -29.0371
lclavicle 3.27001e-014 -2.60408e-014
lhumerus 11.2993 -1.93455 63.2272
lradius 63.233
lwrist 6.96043
lhand -22.7496 27.2803
lfingers 7.12502
lthumb 3.68495 57.2282
rfemur -37.32 0.812496 10.7352
rtibia 20.1932
rfoot -3.95897 -17.116
rtoes 15.1572
lfemur -27.1119 -2.75446 -13.0413
ltibia 37.0542
lfoot -19.2601 -9.58538
ltoes -17.5569
203
root -1.36809 17.3785 -0.140133 12.223 15.5092 0.237815
lowerback 14.4521 -0.994901 -3.37306
upperback 5.57009 -1.68964 0.677139
thorax -2.09199 -0.86083 2.87962
lowerneck -15.7418 -0.621472 -9.92732
upperneck 38.4985 2.76075 0.0756913
head 16.4262 -0.241588 2.3092
rclavicle 1.71949e-014 -1.70955e-014
rhumerus 20.353 4.2976 -50.1053
rradius 74.6224
rwrist 17.8261
rhand -37.595 0.564175
rfingers 7.12502
rthumb -10.6486 -29.146
lclavicle 1.71949e-014 -1.70955e-014
lhumerus 9.78621 -4.09184 64.3775
lradius 62.7058
lwrist 6.34512
lhand -22.0084 27.029
lfingers 7.12502
lthumb 4.40065 56.9632
rfemur -38.1815 0.532999 10.9792
rtibia 20.4193
rfoot -3.60592 -17.1068
rtoes 15.7744
lfemur -28.0132 -2.458 -12.7539
ltibia 37.175
lfoot -19.299 -9.95675
ltoes -17.9
204
root -1.42373 17.3716 -0.106392 12.941 15.7196 0.172337
lowerback 14.7756 -1.0113 -3.17892
upperback 5.72907 -1.68878 0.687677
thorax -2.10374 -0.858899 2.7872
lowerneck -16.008 -0.643678 -9.70567
upperneck 38.7522 2.76496 -0.0637827
head 16.6328 -0.241434 2.21811
rclavicle -5.55603e-014 4.17448e-015
rhumerus 18.9782 6.51708 -51.4506
rradius 73.7609
rwrist 17.6242
rhand -37.1388 0.125715
rfingers 7.12502
rthumb -10.2085 -29.6066
lclavicle -5.55603e-014 4.17448e-015
lhumerus 8.25574 -6.02348 65.6497
lradius 62.1041
lwrist 5.35072
lhand -21.1449 27.0335
lfingers 7.12502
lthumb 5.23447 56.9488
rfemur -39.0727 0.270146 11.289
rtibia 20.6906
rfoot -3.55511 -17.1623
rtoes 16.0947
lfemur -28.8875 -2.11095 -12.4376
ltibia 37.2759
lfoot -19.3283 -10.3804
ltoes -17.8866
205
root -1.47856 17.3649 -0.0722225 13.5622 15.8827 0.0640106
lowerback 15.2556 -1.01224 -2.99317
upperback 5.86762 -1.6716 0.717829
thorax -2.21979 -0.846657 2.72224
lowerneck -16.0922 -0.642247 -9.49567
upperneck 38.8564 2.76333 -0.183303
head 16.7143 -0.232984 2.13126
rclavicle -3.04141e-014 -6.95746e-015
rhumerus 17.385 8.71427 -52.9814
rradius 73.0438
rwrist 17.5692
rhand -36.6426 -0.535583
rfingers 7.12502
rthumb -9.72987 -30.2908
lclavicle -3.04141e-014 -6.95746e-015
lhumerus 6.69666 -8.08581 66.8075
lradius 61.3193
lwrist 4.24525
lhand -20.8213 27.1386
lfingers 7.12502
lthumb 5.54691 57.046
rfemur -39.9017 -0.0515965 11.7055
rtibia 20.9841
rfoot -3.63207 -17.2235
rtoes 15.9769
lfemur -29.6538 -1.86232 -12.0647
ltibia 37.3834
lfoot -19.3405 -10.6474
ltoes -18.0768
206
root -1.53453 17.3589 -0.0379797 14.1825 16.0803 -0.120969
lowerback 15.7312 -1.01352 -2.75173
upperback 5.99889 -1.64317 0.791594
thorax -2.34126 -0.828549 2.66953
lowerneck -16.043 -0.65415 -9.44508
upperneck 38.8065 2.70802 -0.155184
head 16.677 -0.23998 2.124
rclavicle 4.1049e-014 -3.57812e-015
rhumerus 15.6612 10.8122 -54.6193
rradius 72.3454
rwrist 17.9679
rhand -36.2673 -1.28934
rfingers 7.12502
rthumb -9.36774 -31.0612
lclavicle 4.1049e-014 -3.57812e-015
lhumerus 5.25915 -10.2465 67.8977
lradius 60.3176
lwrist 2.97948
lhand -21.051 26.5692
lfingers 7.12502
lthumb 5.32507 56.4823
rfemur -40.7558 -0.477204 12.2969
rtibia 21.292
rfoot -3.47764 -17.1822
rtoes 15.4297
lfemur -30.4302 -1.74304 -11.5584
ltibia 37.5022
lfoot -19.3377 -10.8762
ltoes -17.8039
207
root -1.59163 17.3501 0.000277309 14.8802 16.2504 -0.39407
lowerback 16.0718 -1.01127 -2.4451
upperback 6.17125 -1.59363 0.892032
thorax -2.3493 -0.802109 2.59958
lowerneck -16.1558 -0.691536 -9.47768
upperneck 38.7196 2.65177 -0.102488
head 16.6601 -0.256749 2.14315
rclavicle 3.53837e-014 9.93923e-016
rhumerus 14.0662 12.6874 -56.4088
rradius 71.4829
rwrist 19.0173
rhand -35.6358 -1.30995
rfingers 7.12502
rthumb -8.75836 -31.1082
lclavicle 3.53837e-014 9.93923e-016
lhumerus 3.92725 -12.2507 68.9347
lradius 59.3958
lwrist 1.24613
lhand -21.047 25.7083
lfingers 7.12502
lthumb 5.32899 55.6213
rfemur -41.748 -0.819824 12.9678
rtibia 21.6233
rfoot -3.32504 -16.9556
rtoes 16.4738
lfemur -31.2942 -1.50569 -10.9753
ltibia 37.6355
lfoot -19.3474 -11.0691
ltoes -17.8619
208
root -1.65146 17.3392 0.0385508 15.6141 16.385 -0.507973
lowerback 16.4646 -0.977284 -2.33628
upperback 6.34645 -1.53137 0.99433
thorax -2.37518 -0.771105 2.64247
lowerneck -16.3711 -0.764969 -9.54044
upperneck 38.7371 2.60867 -0.133917
head 16.7287 -0.289984 2.1355
rclavicle 4.30369e-014 -1.31198e-014
rhumerus 12.4854 14.5136 -58.165
rradius 70.5914
rwrist 19.9932
rhand -34.8505 -1.05107
rfingers 7.12502
rthumb -8.0005 -30.8797
lclavicle 4.30369e-014 -1.31198e-014
lhumerus 2.5723 -13.9838 70.1341
lradius 58.6272
lwrist -1.00594
lhand -20.0247 26.3187
lfingers 7.12502
lthumb 6.31596 56.2046
rfemur -42.7735 -1.29431 13.5645
rtibia 21.9794
rfoot -2.96803 -16.5031
rtoes 17.657
lfemur -32.1603 -1.20341 -10.5804
ltibia 37.7778
lfoot -19.3554 -11.2906
ltoes -18.0382
209
root -1.71327 17.3322 0.0765395 16.3903 16.4933 -0.636992
lowerback 16.8444 -0.884472 -2.1993
upperback 6.47175 -1.38916 1.06817
thorax -2.4528 -0.698831 2.62496
lowerneck -16.4123 -0.867999 -9.53906
upperneck 38.6858 2.44728 -0.104182
head 16.7211 -0.347351 2.11956
rclavicle -6.06293e-015 -8.94531e-015
rhumerus 10.6999 16.262 -59.9427
rradius 69.6453
rwrist 20.6643
rhand -34.0986 -0.711999
rfingers 7.12502
rthumb -7.27471 -30.5669
lclavicle -6.06293e-015 -8.94531e-015
lhumerus 1.21327 -15.7965 71.3911
lradius 57.8613
lwrist -2.87778
lhand -18.7831 27.5289
lfingers 7.12502
lthumb 7.51453 57.3755
rfemur -43.8695 -1.87534 14.3077
rtibia 22.4067
rfoot -2.39098 -15.863
rtoes 17.7999
lfemur -33.0686 -0.968051 -10.1639
ltibia 37.9197
lfoot -19.4628 -11.3276
ltoes -18.3822
210
root -1.77355 17.3252 0.114652 17.1714 16.5099 -0.802577
lowerback 17.248 -0.889988 -2.13146
upperback 6.6307 -1.38259 1.19897
thorax -2.49436 -0.69599 2.73116
lowerneck -16.7052 -0.865682 -9.8278
upperneck 38.553 2.52169 0.0417544
head 16.714 -0.336497 2.24904
rclavicle 3.00165e-014 -1.78906e-015
rhumerus 9.27483 18.3898 -61.6555
rradius 68.5219
rwrist 21.1718
rhand -33.0844 -0.661589
rfingers 7.12502
rthumb -6.29566 -30.548
lclavicle 3.00165e-014 -1.78906e-015
lhumerus -0.282405 -17.0078 72.7075
lradius 57.2275
lwrist -4.67364
lhand -19.5662 26.2604
lfingers 7.12502
lthumb 6.75856 56.1326
rfemur -45.0274 -2.43594 15.1337
rtibia 22.9109
rfoot -1.91836 -15.2153
rtoes 17.4679
lfemur -33.9512 -0.704355 -9.74188
ltibia 38.0536
lfoot -19.5642 -11.2162
ltoes -18.9719
211
root -1.83135 17.3141 0.152845 18.0336 16.5533 -0.765684
lowerback 17.6235 -0.843583 -2.16166
upperback 6.84035 -1.32533 1.2526
thorax -2.46884 -0.669744 2.80047
lowerneck -17.2608 -0.964212 -10.0162
upperneck 38.4782 2.44627 0.202911
head 16.8132 -0.374995 2.34482
rclavicle 1.78906e-014 2.56432e-014
rhumerus 7.85711 20.3461 -63.274
rradius 67.3455
rwrist 21.3571
rhand -32.4922 -1.23913
rfingers 7.12502
rthumb -5.72392 -31.1418
lclavicle 1.78906e-014 2.56432e-014
lhumerus -1.57774 -18.3049 73.9392
lradius 56.7249
lwrist -6.58538
lhand -21.1604 24.3113
lfingers 7.12502
lthumb 5.21943 54.2271
rfemur -46.2383 -3.20572 15.8527
rtibia 23.4415
rfoot -1.30665 -14.4272
rtoes 16.9867
lfemur -34.8641 -0.486105 -9.5403
ltibia 38.1795
lfoot -19.4794 -11.2038
ltoes -18.939
212
root -1.89263 17.306 0.191861 18.8881 16.7498 -0.77223
lowerback 18.083 -0.815492 -2.1215
upperback 6.95863 -1.27936 1.37267
thorax -2.58295 -0.64584 2.90568
lowerneck -17.4869 -1.03662 -10.1592
upperneck 38.3649 2.39975 0.240669
head 16.8124 -0.405235 2.37863
rclavicle -4.17448e-014 1.81888e-014
rhumerus 6.32445 22.1767 -64.8317
rradius 66.2233
rwrist 21.5404
rhand -31.9378 -1.22921
rfingers 7.12502
rthumb -5.18862 -31.1457
lclavicle -4.17448e-014 1.81888e-014
lhumerus -3.02721 -19.7556 75.1938
lradius 56.3129
lwrist -7.78889
lhand -19.7919 25.1858
lfingers 7.12502
lthumb 6.54068 55.0648
rfemur -47.4481 -3.88803 16.5725
rtibia 24.0118
rfoot -0.761332 -13.7788
rtoes 17.0053
lfemur -35.8621 -0.308866 -9.26602
ltibia 38.3131
lfoot -19.3649 -11.2424
ltoes -18.9672
